<!DOCTYPE svg PUBLIC "-//W3C//DTD SVG 1.1//EN" "http://www.w3.org/Graphics/SVG/1.1/DTD/svg11.dtd">
<!-- Uploaded to: SVG Repo, www.svgrepo.com, Transformed by: SVG Repo Mixer Tools -->
<svg fill="#000000" version="1.1" id="Capa_1" xmlns="http://www.w3.org/2000/svg" xmlns:xlink="http://www.w3.org/1999/xlink" width="800px" height="800px" viewBox="0 0 461.642 461.642" xml:space="preserve" stroke="#000000">
<g id="SVGRepo_bgCarrier" stroke-width="0"/>
<g id="SVGRepo_tracerCarrier" stroke-linecap="round" stroke-linejoin="round"/>
<g id="SVGRepo_iconCarrier"> <g> <path d="M437.161,404.935h-9.792c-1.224-12.239-12.24-22.031-25.704-22.031h-17.136V231.127h17.136 c9.792,0,19.584-6.121,23.256-14.688h11.017l0,0c14.688,0,25.704-11.016,25.704-25.704c0-9.792-4.896-17.136-12.24-22.032 L247.441,12.03c-9.792-7.344-22.032-7.344-31.824,0L9.986,171.15c-8.568,6.12-12.24,18.36-8.568,28.152 c3.672,9.792,13.464,17.136,24.48,17.136h11.016c4.896,8.568,13.464,14.688,23.256,14.688h17.136v150.552H60.17 c-13.464,0-23.256,9.792-25.704,22.032h-8.568c-14.688,0-25.704,11.016-25.704,25.704c0,14.688,11.016,25.704,25.704,25.704h410.04 c14.688,0,25.704-11.017,25.704-25.704C461.642,415.951,450.625,404.935,437.161,404.935z M214.394,231.127h34.271v150.552h-34.271 V231.127z M333.121,382.903H298.85V231.127h34.271V382.903z M231.53,64.663L362.497,165.03H100.562L231.53,64.663z M128.714,231.127h34.272v150.552h-34.272V231.127z"/> </g> </g>
</svg>